<svg xmlns="http://www.w3.org/2000/svg" width="372" height="372" fill="none">
  <path stroke-width="3" d="M128.683 122.645a13.152 13.152 0 0 0-6.369-11.257h-.001L86.342 89.792l-.225-.13a7.825 7.825 0 0 0-11.622 6.582l-.004.259v210.421l-24.987-15.002A47.81 47.81 0 0 1 26.3 250.923V128.37a59.716 59.716 0 0 1 28.93-51.187h-.001l.603-.351.01-.005.007-.005a59.696 59.696 0 0 1 61.488 0h.001l104.86 62.956-34.387 20.652a27.885 27.885 0 0 0-9.914 37.641 27.882 27.882 0 0 0 9.915 10.171v-.001l37.64 22.605-63.36 38.042-.001.001a13.14 13.14 0 0 0-6.369 11.257v41.953l.004.259a7.832 7.832 0 0 0 1.059 3.684 7.825 7.825 0 0 0 10.788 2.769v-.001l113.293-68.045.001.001a34.869 34.869 0 0 0 .482-59.494l-.482-.294-24.466-14.689 24.466-14.69a34.868 34.868 0 0 0 0-59.777l-141.627-85 22.185-13.333-.001-.001a47.842 47.842 0 0 1 49.245 0l111.92 67.168a47.815 47.815 0 0 1 23.204 40.998v129.301l-.007.773a47.811 47.811 0 0 1-22.537 39.821l-.66.404-111.92 67.166v.001a47.846 47.846 0 0 1-49.245 0l-27.827-16.709a10.122 10.122 0 0 1-4.914-8.686v-211.08Z"/>
  <g opacity=".2">
    <path  stroke-width="3" d="M86.593 68.301a59.727 59.727 0 0 1 30.745 8.52l104.822 62.954-7.825 4.672L108.01 80.738a62.468 62.468 0 0 0-32.143-8.913c-4.45 0-8.626.412-12.467 1.165a59.724 59.724 0 0 1 23.193-4.69Zm91.924 101.213a27.874 27.874 0 0 0-.651 28.557 27.88 27.88 0 0 0 9.915 10.17l37.675 22.607-7.981 4.808-38.967-23.465-.002-.001-.684-.425a24.887 24.887 0 0 1-11.394-20.909 24.893 24.893 0 0 1 3.229-12.257 24.866 24.866 0 0 1 8.849-9.076l.002-.002.009-.007Zm-22.036 106.225a13.145 13.145 0 0 0-.759 4.373v41.957a7.824 7.824 0 0 0 5.038 7.307l-5.594 3.374a4.837 4.837 0 0 1-4.861.059 4.836 4.836 0 0 1-2.443-3.882l-.011-.32v-41.951l.005-.327a10.128 10.128 0 0 1 1.31-4.662 10.134 10.134 0 0 1 3.599-3.697l3.716-2.231Z" opacity=".85"/>
  </g>
  <style>
        path { fill="#000"; stroke="#000" }
        @media (prefers-color-scheme: dark) {
            path { fill="#fff"; stroke="#fff" }
        }
  </style>
</svg>
