<svg
  xmlns="http://www.w3.org/2000/svg"
  viewBox="0 0 80 80"
  fill="none"
>
  <path
    fill="currentColor"
    d="M69.54 17.069 45.471 2.624a10.611 10.611 0 0 0-10.922 0L29.318 5.77l30.918 18.555a7.176 7.176 0 0 1 0 12.302l-5.722 3.436 5.722 3.436a7.176 7.176 0 0 1 0 12.304L35.87 70.435a1.36 1.36 0 0 1-2.06-1.166v-9.023a2.502 2.502 0 0 1 1.214-2.144l14.086-8.458-8.555-5.137a5.672 5.672 0 0 1 0-9.73l7.855-4.717-23.01-13.816a13.16 13.16 0 0 0-13.556 0l-.134.078a13.164 13.164 0 0 0-6.378 11.285v26.355a10.604 10.604 0 0 0 5.147 9.093l5.862 3.52V20.753a1.36 1.36 0 0 1 2.06-1.166l7.736 4.644a2.503 2.503 0 0 1 1.213 2.144V71.77a2.5 2.5 0 0 0 1.214 2.144l5.984 3.594a10.611 10.611 0 0 0 10.922 0l24.07-14.445a10.605 10.605 0 0 0 5.146-9.093V26.162a10.607 10.607 0 0 0-5.147-9.093Z"
  ></path>
  <style>
      path { fill="#1d211c"; stroke="#1d211c" }
      @media (prefers-color-scheme: dark) {
          path { fill="#bdee63"; stroke="#bdee63" }
      }
  </style>
</svg>
